<svg t="1661277490853" viewBox="0 0 1024 1024" version="1.1" xmlns="http://www.w3.org/2000/svg" p-id="11509"><path d="M359.5 522.1c35.6 21.7 77.3 34.4 121.9 34.4 44.7 0 86.3-12.7 122-34.4 33.1 27.3 62.4 65.3 86.2 111.6-12 4.2-20.7 15.5-20.7 29 0 17 13.8 30.8 30.8 30.8h143.4c17 0 30.8-13.8 30.8-30.8s-13.8-30.8-30.8-30.8h-86.3c-0.2-0.5-0.3-1-0.5-1.4C729.2 570.1 693.5 520 652 483c40.3-42.3 65.2-99.4 65.2-162.3 0-130-105.8-235.8-235.8-235.8S245.7 190.7 245.7 320.7c0 62.9 24.9 120 65.2 162.3C212.3 571.3 150 733 150 908.2c0 17 13.8 30.8 30.8 30.8h372.6c17 0 30.8-13.8 30.8-30.8s-13.8-30.8-30.8-30.8h-341c6.7-150.8 62.5-285.6 147.1-355.3z m121.9-375.5c96 0 174.1 78.1 174.1 174.1s-78.1 174.1-174.1 174.1-174.1-78.1-174.1-174.1 78.1-174.1 174.1-174.1z" fill="#ffffff" p-id="11510"></path><path d="M843.2 753.7H699.7c-17 0-30.8 13.8-30.8 30.8s13.8 30.8 30.8 30.8h143.4c17 0 30.8-13.8 30.8-30.8 0.1-17.1-13.7-30.8-30.7-30.8zM841.7 875.5H698.3c-17 0-30.8 13.8-30.8 30.8s13.8 30.8 30.8 30.8h143.4c17 0 30.8-13.8 30.8-30.8s-13.8-30.8-30.8-30.8z" fill="#ffffff" p-id="11511"></path></svg>